<?xml version="1.0" encoding="utf-8"?>
<!-- Generator: Adobe Illustrator 26.0.1, SVG Export Plug-In . SVG Version: 6.00 Build 0)  -->
<svg version="1.1" id="レイヤー_1" xmlns="http://www.w3.org/2000/svg" xmlns:xlink="http://www.w3.org/1999/xlink" x="0px"
	 y="0px" viewBox="0 0 512 82" style="enable-background:new 0 0 512 82;" xml:space="preserve">
<g>
	<path d="M17.68,55.08c1.07,1.64,2.51,2.97,4.3,3.99c1.79,1.02,3.71,1.54,5.76,1.54c2.2,0,4.22-0.51,6.06-1.54s3.29-2.35,4.34-3.99
		c1.05-1.64,1.57-3.35,1.57-5.14V14.33h10.97v35.84c0,4.04-1.02,7.69-3.07,10.94c-2.05,3.25-4.82,5.78-8.33,7.6
		c-3.51,1.82-7.36,2.72-11.55,2.72c-4.2,0-8.03-0.91-11.51-2.72c-3.48-1.82-6.23-4.35-8.25-7.6c-2.02-3.25-3.03-6.89-3.03-10.94
		V14.33h11.13v35.61C16.07,51.73,16.6,53.45,17.68,55.08z"/>
	<path d="M93.61,38.51c2.12,1.89,3.21,4.3,3.26,7.21v25.09H86.13v-21.1c-0.15-3.27-1.79-4.91-4.91-4.91c-2.46,0-4.43,1.15-5.91,3.45
		c-1.48,2.3-2.23,5.27-2.23,8.9v13.66H62.34V37.28h9.75l0.77,5.37c1.23-2.2,2.93-3.91,5.1-5.14c2.17-1.23,4.74-1.84,7.71-1.84
		C88.84,35.67,91.49,36.61,93.61,38.51z"/>
	<path d="M109.5,21.51c1.2-1.05,2.57-1.57,4.11-1.57c1.48,0,2.81,0.53,3.99,1.57c1.18,1.05,1.77,2.34,1.77,3.88
		s-0.59,2.81-1.77,3.84c-1.18,1.02-2.51,1.54-3.99,1.54c-1.54,0-2.9-0.51-4.11-1.54c-1.2-1.02-1.8-2.3-1.8-3.84
		S108.3,22.56,109.5,21.51z M118.67,37.28v33.54h-10.74V37.28H118.67z"/>
	<path d="M164.41,37.28L145.38,71.5h-0.31l-20.11-34.23h12.74l7.83,15.96l6.91-15.96H164.41z"/>
	<path d="M194.11,60.38l4.76,7.98c-1.84,1.02-3.79,1.84-5.83,2.46c-2.05,0.61-3.99,0.92-5.83,0.92c-3.99,0-7.43-0.76-10.32-2.26
		c-2.89-1.51-5.08-3.63-6.56-6.37c-1.48-2.74-2.23-5.87-2.23-9.4c0-3.27,0.86-6.29,2.57-9.06c1.71-2.76,4.05-4.95,7.02-6.56
		c2.97-1.61,6.22-2.42,9.75-2.42c4.81,0,8.76,1.41,11.86,4.22c3.09,2.81,5.1,6.83,6.02,12.05l-24.56,7.83
		c1.64,1.89,3.86,2.84,6.68,2.84C189.58,62.6,191.81,61.86,194.11,60.38z M180.83,46.49c-1.43,1.64-2.15,3.84-2.15,6.6v0.69
		l14.73-4.99c-1.07-3.17-3.35-4.76-6.83-4.76C184.18,44.03,182.26,44.85,180.83,46.49z"/>
	<path d="M249.21,37.28v33.54h-10.74v-4.14c-3.22,3.38-6.96,5.07-11.2,5.07c-4.96,0-8.99-1.48-12.09-4.45
		c-3.1-2.97-4.64-7.37-4.64-13.2c0-3.68,0.75-6.92,2.26-9.71c1.51-2.79,3.52-4.95,6.02-6.48c2.51-1.54,5.19-2.3,8.06-2.3
		c2.97,0,5.32,0.45,7.06,1.34c1.74,0.9,3.27,2.16,4.6,3.8l0.69-3.45H249.21z M238.46,57.92v-8.21c-0.61-1.64-1.68-2.94-3.19-3.91
		c-1.51-0.97-3.29-1.46-5.33-1.46c-2.35,0-4.36,0.87-6.02,2.61c-1.66,1.74-2.49,3.94-2.49,6.6c0,1.74,0.41,3.34,1.23,4.8
		c0.82,1.46,1.91,2.6,3.26,3.42c1.35,0.82,2.83,1.23,4.41,1.23C234.06,62.99,236.78,61.3,238.46,57.92z"/>
	<path d="M274.57,40.12c1.61-1.43,3.26-2.54,4.95-3.34c1.69-0.79,3.02-1.19,3.99-1.19l-0.54,10.74c-0.31-0.05-0.74-0.08-1.3-0.08
		c-2.15,0-4.04,0.56-5.68,1.69c-1.64,1.13-2.89,2.57-3.76,4.34c-0.87,1.77-1.3,3.57-1.3,5.41v13.12h-10.67V37.28h9.67l0.84,7.67
		C271.69,43.16,272.96,41.55,274.57,40.12z"/>
	<path d="M305.61,22.54v14.58h8.13v8.36h-8.13v25.32h-10.74V45.49h-5.22v-8.36h5.22V22.54H305.61z"/>
	<path d="M353.23,38.51c2.12,1.89,3.21,4.3,3.26,7.21v25.09h-10.74v-21.1c-0.15-3.27-1.79-4.91-4.91-4.91
		c-2.46,0-4.43,1.15-5.91,3.45c-1.48,2.3-2.23,5.27-2.23,8.9v13.66h-10.74V10.26h10.51v32.31c1.23-2.15,2.93-3.84,5.1-5.06
		c2.17-1.23,4.75-1.84,7.71-1.84C348.46,35.67,351.11,36.61,353.23,38.51z"/>
	<path d="M405.38,14.33v56.48h-11.13V14.33H405.38z"/>
	<path d="M449.47,38.51c2.12,1.89,3.21,4.3,3.26,7.21v25.09h-10.74v-21.1c-0.15-3.27-1.79-4.91-4.91-4.91
		c-2.46,0-4.43,1.15-5.91,3.45c-1.48,2.3-2.23,5.27-2.23,8.9v13.66h-10.74V37.28h9.75l0.77,5.37c1.23-2.2,2.93-3.91,5.1-5.14
		c2.17-1.23,4.75-1.84,7.71-1.84C444.69,35.67,447.34,36.61,449.47,38.51z"/>
	<path d="M486.69,70.66c-2.23,0.72-4.41,1.07-6.56,1.07c-5.83,0-10.45-1.57-13.85-4.72c-3.4-3.15-5.1-7.48-5.1-13.01
		c0-3.58,0.83-6.71,2.49-9.4c1.66-2.69,3.85-4.73,6.56-6.14c2.71-1.41,5.63-2.11,8.75-2.11c5.58,0,10.1,1.48,13.58,4.45l-5.22,6.91
		c-2.2-1.74-4.66-2.61-7.37-2.61c-2.25,0-4.16,0.84-5.72,2.53c-1.56,1.69-2.34,3.81-2.34,6.37c0,2.56,0.84,4.69,2.53,6.41
		c1.69,1.71,3.89,2.57,6.6,2.57c2.35,0,4.3-0.64,5.83-1.92l5.37,6.75C490.77,69,488.91,69.95,486.69,70.66z"/>
	<path d="M497.85,61.34c1.12-1.1,2.4-1.65,3.84-1.65c1.33,0,2.56,0.55,3.68,1.65c1.12,1.1,1.69,2.42,1.69,3.95
		c0,1.59-0.55,2.9-1.65,3.95c-1.1,1.05-2.34,1.57-3.72,1.57c-1.43,0-2.71-0.51-3.84-1.54c-1.13-1.02-1.69-2.35-1.69-3.99
		C496.16,63.75,496.73,62.44,497.85,61.34z"/>
</g>
</svg>
